ModelForces
version=1
nRows=4
nColumns=157
inDegrees=no

This file contains the forces exerted on a model during a simulation.

A force is a generalized force, meaning that it can be either a force (N) or a torque (Nm).

Units are S.I. units (second, meters, Newtons, ...)
Angles are in degrees.

endheader
time	glut_med1_r	glut_med2_r	glut_med3_r	glut_min1_r	glut_min2_r	glut_min3_r	semimem_r	semiten_r	bifemlh_r	bifemsh_r	sar_r	add_long_r	add_brev_r	add_mag1_r	add_mag2_r	add_mag3_r	tfl_r	pect_r	grac_r	glut_max1_r	glut_max2_r	glut_max3_r	iliacus_r	psoas_r	quad_fem_r	gem_r	peri_r	rect_fem_r	vas_med_r	vas_int_r	vas_lat_r	med_gas_r	lat_gas_r	soleus_r	tib_post_r	flex_dig_r	flex_hal_r	tib_ant_r	per_brev_r	per_long_r	per_tert_r	ext_dig_r	ext_hal_r	glut_med1_l	glut_med2_l	glut_med3_l	glut_min1_l	glut_min2_l	glut_min3_l	semimem_l	semiten_l	bifemlh_l	bifemsh_l	sar_l	add_long_l	add_brev_l	add_mag1_l	add_mag2_l	add_mag3_l	tfl_l	pect_l	grac_l	glut_max1_l	glut_max2_l	glut_max3_l	iliacus_l	psoas_l	quad_fem_l	gem_l	peri_l	rect_fem_l	vas_med_l	vas_int_l	vas_lat_l	med_gas_l	lat_gas_l	soleus_l	tib_post_l	flex_dig_l	flex_hal_l	tib_ant_l	per_brev_l	per_long_l	per_tert_l	ext_dig_l	ext_hal_l	ercspn_r	ercspn_l	intobl_r	intobl_l	extobl_r	extobl_l	femur_lat_meniscii_r.femur_lat_r.force.X	femur_lat_meniscii_r.femur_lat_r.force.Y	femur_lat_meniscii_r.femur_lat_r.force.Z	femur_lat_meniscii_r.femur_lat_r.torque.X	femur_lat_meniscii_r.femur_lat_r.torque.Y	femur_lat_meniscii_r.femur_lat_r.torque.Z	femur_lat_meniscii_r.meniscus_lat_r.force.X	femur_lat_meniscii_r.meniscus_lat_r.force.Y	femur_lat_meniscii_r.meniscus_lat_r.force.Z	femur_lat_meniscii_r.meniscus_lat_r.torque.X	femur_lat_meniscii_r.meniscus_lat_r.torque.Y	femur_lat_meniscii_r.meniscus_lat_r.torque.Z	femur_med_meniscii_r.femur_med_r.force.X	femur_med_meniscii_r.femur_med_r.force.Y	femur_med_meniscii_r.femur_med_r.force.Z	femur_med_meniscii_r.femur_med_r.torque.X	femur_med_meniscii_r.femur_med_r.torque.Y	femur_med_meniscii_r.femur_med_r.torque.Z	femur_med_meniscii_r.meniscus_med_r.force.X	femur_med_meniscii_r.meniscus_med_r.force.Y	femur_med_meniscii_r.meniscus_med_r.force.Z	femur_med_meniscii_r.meniscus_med_r.torque.X	femur_med_meniscii_r.meniscus_med_r.torque.Y	femur_med_meniscii_r.meniscus_med_r.torque.Z	femur_med_tibia_r.tibia_upper_r.force.X	femur_med_tibia_r.tibia_upper_r.force.Y	femur_med_tibia_r.tibia_upper_r.force.Z	femur_med_tibia_r.tibia_upper_r.torque.X	femur_med_tibia_r.tibia_upper_r.torque.Y	femur_med_tibia_r.tibia_upper_r.torque.Z	femur_med_tibia_r.femur_med_r.force.X	femur_med_tibia_r.femur_med_r.force.Y	femur_med_tibia_r.femur_med_r.force.Z	femur_med_tibia_r.femur_med_r.torque.X	femur_med_tibia_r.femur_med_r.torque.Y	femur_med_tibia_r.femur_med_r.torque.Z	femur_lat_tibia_r.tibia_upper_r.force.X	femur_lat_tibia_r.tibia_upper_r.force.Y	femur_lat_tibia_r.tibia_upper_r.force.Z	femur_lat_tibia_r.tibia_upper_r.torque.X	femur_lat_tibia_r.tibia_upper_r.torque.Y	femur_lat_tibia_r.tibia_upper_r.torque.Z	femur_lat_tibia_r.femur_lat_r.force.X	femur_lat_tibia_r.femur_lat_r.force.Y	femur_lat_tibia_r.femur_lat_r.force.Z	femur_lat_tibia_r.femur_lat_r.torque.X	femur_lat_tibia_r.femur_lat_r.torque.Y	femur_lat_tibia_r.femur_lat_r.torque.Z	aACL_R	pACL_R	aPCL_R	pPCL_R	aMCL_R	mMCL_R	pMCL_R	aLCL_R	mLCL_R	pLCL_R	ground_prescribedForce_fx	ground_prescribedForce_fy	ground_prescribedForce_fz	ground_prescribedForce_px	ground_prescribedForce_py	ground_prescribedForce_pz
      0.74864481	      7.54757422	      5.66549372	      6.06443484	      2.65881837	      3.17881948	      3.19258285	      8.62510054	      4.08555038	      7.75529807	      7.23256389	      0.78814708	      5.61302097	      4.14088012	      2.91879107	      2.45360842	      3.98724207	      3.88387989	      2.23861440	      1.55958962	      3.65590676	      5.55574859	      4.14722266	     22.64713395	     12.96632834	      3.62651076	      2.85424080	      4.08983162	     10.66594378	      6.62473193	      6.74584069	      8.44635316	      5.21802669	      2.82494973	      9.22475548	     13.43861706	      2.94146546	      2.32941048	     17.05579101	      4.02477728	      8.36203690	     11.47344237	      9.64926185	      2.51613294	      7.54757422	      5.66549372	      6.06443484	      2.65881837	      3.17881948	      3.19258285	      8.74470206	      4.08303279	      7.68244519	      7.21569526	      1.51967639	      5.61302097	      4.14088012	      2.91879107	      2.45360842	      3.98724207	      4.09688832	      2.23861440	      1.55863254	      3.65590676	      5.55574859	      4.14722266	     22.64713395	     12.96632834	      3.62651076	      2.85424080	      4.08983162	     10.66661191	      6.59237448	      7.56197396	      8.13116724	     13.95251106	      6.47847176	     31.08541962	     42.35884986	      2.57982845	      2.83843438	      8.45137838	      4.33379709	     12.44618445	      2.00580308	      5.36411270	      1.70258734	     25.00548352	     25.00548352	      8.99971705	      8.99971705	     26.80435494	     26.80435494	     30.51980017	     70.83693551	     12.03187978	     -6.73465856	      0.73129603	     12.80627508	    -30.51980017	    -70.83693551	    -12.03187978	      2.39311361	     -0.86702357	     -0.99452084	     41.35468483	     80.40052560	      8.04742411	     -1.59630445	     -0.94867609	     17.60337579	    -41.35468483	    -80.40052560	     -8.04742411	     -1.17234856	      0.77218410	     -1.61231839	      0.00000000	      0.00000000	      0.00000000	      0.00000000	      0.00000000	      0.00000000	      0.00000000	      0.00000000	      0.00000000	      0.00000000	      0.00000000	      0.00000000	      0.00000000	      0.00000000	      0.00000000	      0.00000000	      0.00000000	      0.00000000	      0.00000000	      0.00000000	      0.00000000	      0.00000000	      0.00000000	      0.00000000	     22.71289820	     51.39990185	      0.00000000	      0.00000000	      0.00000000	      2.41024311	     13.88160529	      0.37644126	      0.00000000	      1.35853244	    110.00000000	      0.00000000	      0.00000000	      0.03000000	     -0.03000000	      0.00000000
      0.74989787	      7.54754136	      5.66547107	      6.06441029	      2.65880819	      3.17880847	      3.19256898	      8.62529966	      4.08476986	      7.75513031	      7.22642005	      1.40065653	      5.61299827	      4.14086441	      2.91877949	      2.45359845	      3.98722412	      3.88357512	      2.23860578	      1.55742546	      3.65589216	      5.55572634	      4.14720574	     22.64709290	     12.96628219	      3.62649657	      2.85423416	      4.08980492	     10.66562680	      6.62001272	      6.74132547	      8.44282618	      5.23007839	      2.83408153	      9.24214589	     13.47644211	      2.94385745	      2.32657414	     17.05000889	      4.02105116	      8.36256319	     11.46570872	      9.67925988	      2.52096481	      7.54754136	      5.66547107	      6.06441029	      2.65880819	      3.17880847	      3.19256898	      8.74465412	      4.08301518	      7.68240533	      7.21566702	      1.51967060	      5.61299827	      4.14086441	      2.91877949	      2.45359845	      3.98722412	      4.09687722	      2.23860578	      1.55862649	      3.65589216	      5.55572634	      4.14720574	     22.64709290	     12.96628219	      3.62649657	      2.85423416	      4.08980492	     10.66655768	      6.59234753	      7.56194244	      8.13113353	     13.95238490	      6.47841306	     31.08521734	     42.35877101	      2.57880329	      2.83796433	      8.45133759	      4.33377258	     12.44612382	      2.00579592	      5.36460040	      1.70271979	     25.00538758	     25.00538758	      8.99967944	      8.99967944	     26.80432116	     26.80432116	     30.53175409	     70.86327039	     12.03920107	     -6.73836845	      0.73158547	     12.81132759	    -30.53175409	    -70.86327039	    -12.03920107	      2.39412561	     -0.86738060	     -0.99490883	     41.37756592	     80.45779165	      8.05892530	     -1.59988582	     -0.94916293	     17.61306659	    -41.37756592	    -80.45779165	     -8.05892530	     -1.17294581	      0.77255519	     -1.61310533	      0.00000000	      0.00000000	      0.00000000	      0.00000000	      0.00000000	      0.00000000	      0.00000000	      0.00000000	      0.00000000	      0.00000000	      0.00000000	      0.00000000	      0.00000000	      0.00000000	      0.00000000	      0.00000000	      0.00000000	      0.00000000	      0.00000000	      0.00000000	      0.00000000	      0.00000000	      0.00000000	      0.00000000	     22.63965340	     51.33198534	      0.00000000	      0.00000000	      0.00000000	      2.31686330	     13.78636248	      0.27677586	      0.00000000	      1.25644236	    110.00000000	      0.00000000	      0.00000000	      0.03000000	     -0.03000000	      0.00000000
      0.75334092	      7.54745374	      5.66541069	      6.06434486	      2.65878106	      3.17877912	      3.19253199	      8.61572981	      4.07816692	      7.74982544	      7.20586718	      1.76920337	      5.61293775	      4.14082253	      2.91874861	      2.45357188	      3.98717627	      3.88104614	      2.23858279	      1.55262505	      3.65585323	      5.55566700	      4.14716063	     22.64698344	     12.96615914	      3.62645876	      2.85421648	      4.08973375	     10.65483256	      6.58346354	      6.70662903	      8.40533108	      5.25519736	      2.85599578	      9.28617337	     13.59409433	      2.95122761	      2.32339633	     17.04339864	      4.00452477	      8.35593531	     11.43829468	      9.75752509	      2.53199340	      7.54745374	      5.66541069	      6.06434486	      2.65878106	      3.17877912	      3.19253199	      8.74452630	      4.08296824	      7.68229908	      7.21559174	      1.51965516	      5.61293775	      4.14082253	      2.91874861	      2.45357188	      3.98717627	      4.09684763	      2.23858279	      1.55861039	      3.65585323	      5.55566700	      4.14716063	     22.64698344	     12.96615914	      3.62645876	      2.85421648	      4.08973375	     10.66641309	      6.59227567	      7.56185843	      8.13104365	     13.95204843	      6.47825652	     31.08467806	     42.35856079	      2.57597469	      2.83667132	      8.45122883	      4.33370724	     12.44596218	      2.00577683	      5.36594680	      1.70308493	     25.00513181	     25.00513181	      8.99957919	      8.99957919	     26.80423111	     26.80423111	     30.55919377	     70.93355951	     12.06391584	     -6.75039761	      0.73223911	     12.82291795	    -30.55919377	    -70.93355951	    -12.06391584	      2.39687640	     -0.86815371	     -0.99582908	     41.44673520	     80.64501435	      8.10252643	     -1.61406364	     -0.95090123	     17.64303670	    -41.44673520	    -80.64501435	     -8.10252643	     -1.17484893	      0.77399932	     -1.61623575	      0.00000000	      0.00000000	      0.00000000	      0.00000000	      0.00000000	      0.00000000	      0.00000000	      0.00000000	      0.00000000	      0.00000000	      0.00000000	      0.00000000	      0.00000000	      0.00000000	      0.00000000	      0.00000000	      0.00000000	      0.00000000	      0.00000000	      0.00000000	      0.00000000	      0.00000000	      0.00000000	      0.00000000	     22.52961493	     51.20511663	      0.00000000	      0.00000000	      0.00000000	      2.30421422	     13.76434186	      0.31819555	      0.00000000	      1.29330818	    110.00000000	      0.00000000	      0.00000000	      0.03000000	     -0.03000000	      0.00000000
      0.75622837	      7.54738320	      5.66536208	      6.06429218	      2.65875921	      3.17875549	      3.19250221	      8.60856563	      4.07485110	      7.74768331	      7.20816204	      1.54023467	      5.61288903	      4.14078882	      2.91872375	      2.45355048	      3.98713775	      3.87921118	      2.23856428	      1.55309483	      3.65582189	      5.55561923	      4.14712432	     22.64689531	     12.96606007	      3.62642831	      2.85420224	      4.08967644	     10.64784967	      6.56424343	      6.68715341	      8.37969454	      5.27993698	      2.87629372	      9.32701110	     13.70615822	      2.95836667	      2.32613532	     17.04160792	      3.98656499	      8.34401577	     11.41181183	      9.81540019	      2.53781097	      7.54738320	      5.66536208	      6.06429218	      2.65875921	      3.17875549	      3.19250221	      8.74442339	      4.08293044	      7.68221352	      7.21553112	      1.51964273	      5.61288903	      4.14078882	      2.91872375	      2.45355048	      3.98713775	      4.09682382	      2.23856428	      1.55859742	      3.65582189	      5.55561923	      4.14712432	     22.64689531	     12.96606007	      3.62642831	      2.85420224	      4.08967644	     10.66629668	      6.59221782	      7.56179079	      8.13097130	     13.95177745	      6.47813045	     31.08424386	     42.35839154	      2.57358911	      2.83558529	      8.45114126	      4.33365464	     12.44583202	      2.00576146	      5.36708303	      1.70339245	     25.00492589	     25.00492589	      8.99949848	      8.99949848	     26.80415861	     26.80415861	     30.57635665	     70.97264318	     12.08894256	     -6.76178740	      0.73261867	     12.83014705	    -30.57635665	    -70.97264318	    -12.08894256	      2.39867972	     -0.86857786	     -0.99641394	     41.49863443	     80.79464902	      8.14210489	     -1.62733867	     -0.95229093	     17.66577252	    -41.49863443	    -80.79464902	     -8.14210489	     -1.17632828	      0.77520874	     -1.61886018	      0.00000000	      0.00000000	      0.00000000	      0.00000000	      0.00000000	      0.00000000	      0.00000000	      0.00000000	      0.00000000	      0.00000000	      0.00000000	      0.00000000	      0.00000000	      0.00000000	      0.00000000	      0.00000000	      0.00000000	      0.00000000	      0.00000000	      0.00000000	      0.00000000	      0.00000000	      0.00000000	      0.00000000	     22.47557953	     51.13067008	      0.00000000	      0.00000000	      0.00000000	      2.29461100	     13.74893164	      0.32821797	      0.00000000	      1.30096889	    110.00000000	      0.00000000	      0.00000000	      0.03000000	     -0.03000000	      0.00000000
